/* XPM */
static char *_667571303428[] = {
/* columns rows colors chars-per-pixel */
"21 32 16 1 ",
"  c black",
". c #230F00",
"X c #F6DF31",
"o c #F1CA00",
"O c #917200",
"+ c #523A00",
"@ c gray5",
"# c #343434",
"$ c #6A6A6A",
"% c #D8D8D8",
"& c gray74",
"* c None",
"= c black",
"- c black",
"; c black",
": c black",
/* pixels */
"**.................**",
"*.XXXXXXXXXXXXooooo.*",
".XXooooooOOooooooooO.",
".XooXXXoO+.OooooooOO.",
".oooXooo+.*.OoooooO+.",
"*.OooooO.***.XoooO+.*",
"**.OoooO.***.XooO+.**",
"***.Ooo+.***.XoO+.***",
"****.Oooo...XoOO.****",
"*****.OooXXXoOO.*****",
"******.OooooOO.******",
"*******.OooOO.*******",
"******* .OOO. *******",
"*******@#...#@*******",
"*******@$#### *******",
"******* %%&$#@*******",
"******* %&&$#@*******",
"*******@%&&$# *******",
"******* %&&$#@*******",
"*******@%&&$#@*******",
"*******@&%&$# *******",
"** @ @@%&%&$#@*******",
"* %%$$$&$%&$#@*******",
"*@$$$$$&$%&$# *******",
"**@ @  $&%&$#@*******",
"******* %%&$#@*******",
"* @@@@ %&%&$# *******",
" %%%%%&&$&$$#@*******",
"@$$$$$$#$&$$#@*******",
"*@@     $$$$# *******",
"*******@####@********",
"******** @ @*********"};
