/* XPM */
static char *_672670414711[] = {
/* columns rows colors chars-per-pixel */
"21 48 139 2 ",
"   c black",
".  c #040200",
"X  c #0B0B0B",
"o  c #100A00",
"O  c #160F00",
"+  c #100A05",
"@  c #191000",
"#  c #1C1300",
"$  c #14110B",
"%  c #17120B",
"&  c #1A120A",
"*  c #1A130A",
"=  c #1C130A",
"-  c #1D130A",
";  c #1D140B",
":  c #1E140B",
">  c #1E160B",
",  c #19130C",
"<  c #1D160C",
"1  c #1D1814",
"2  c #11151C",
"3  c #1D1D1D",
"4  c #201600",
"5  c #2A1D00",
"6  c #20160B",
"7  c #23170B",
"8  c #23170C",
"9  c #23170D",
"0  c #25160C",
"q  c #24170D",
"w  c #24180B",
"e  c #20180D",
"r  c #22180C",
"t  c #23180C",
"y  c #22180D",
"u  c #23190F",
"i  c #24190C",
"p  c #24180D",
"a  c #25180D",
"s  c #25190F",
"d  c #26190F",
"f  c #261A0F",
"g  c #271C0F",
"h  c #291C0F",
"j  c #271D10",
"k  c #271D11",
"l  c #2A1C10",
"z  c #2B1C10",
"x  c #2A1D10",
"c  c #2B1D10",
"v  c #2B1F11",
"b  c #2A1F12",
"n  c #2C1D11",
"m  c #2C1E10",
"M  c #2F1F10",
"N  c #2C1F12",
"B  c #321C11",
"V  c #331C12",
"C  c #361D12",
"Z  c #2F2100",
"A  c #352500",
"S  c #382700",
"D  c #2A2013",
"F  c #2C2012",
"G  c #2D2213",
"H  c #2D2214",
"J  c #2F2314",
"K  c #2F2416",
"L  c #302211",
"P  c #302312",
"I  c #302416",
"U  c #382613",
"Y  c #372218",
"T  c #322618",
"R  c #39251C",
"E  c #3B251C",
"W  c #0C1624",
"Q  c #0E1826",
"!  c #0F1927",
"~  c #0E1B2A",
"^  c #0E1B2B",
"/  c #0F1C2F",
"(  c #101C2E",
")  c #101D2F",
"_  c #111E2E",
"`  c #121F2F",
"'  c #101D30",
"]  c #132033",
"[  c #142134",
"{  c #142235",
"}  c #152235",
"|  c #162335",
" . c #172538",
".. c #182639",
"X. c #192739",
"o. c gray23",
"O. c #422C0B",
"+. c #4F3700",
"@. c #593E00",
"#. c #4B3616",
"$. c #443C37",
"%. c #644600",
"&. c #6B4B00",
"*. c #6E4E00",
"=. c #704F00",
"-. c #715000",
";. c #745200",
":. c #785400",
">. c #7B5600",
",. c #75550A",
"<. c #53453C",
"1. c #594A3E",
"2. c #544B44",
"3. c #685543",
"4. c #61564E",
"5. c #8A640A",
"6. c #9B6737",
"7. c #9D7753",
"8. c #826F62",
"9. c #988273",
"0. c #A48B79",
"q. c #C39367",
"w. c #003E82",
"e. c #0054AF",
"r. c #AE9584",
"t. c #BC9F8B",
"y. c #CCA685",
"u. c #D7AB83",
"i. c #D3AB85",
"p. c #D0AB8A",
"a. c #C7AB98",
"s. c #C6E0E5",
"d. c #D6E4E7",
"f. c #DDE2E5",
"g. c #E7F2F4",
"h. c #EAF1F7",
"j. c #F1F5F8",
"k. c white",
"l. c None",
/* pixels */
"l.l.l.A @.@.@.@.@.@.@.@.@.A l.l.l.l.l.l.l.",
"l.l.A @.,.,.,.,.,.,.;.@.@.@.A l.l.l.l.l.l.",
"l.l.Z 5.5.5.5.5.5.,.,.,.>.&.@.@.l.l.l.l.l.",
"l.,.,.5.,.,.,.,.5.5.5.5.;.>.@.@.5 l.l.l.l.",
"%.5.5.,.%.%.%.,.,.,.,.5.5.5.-.@.5 5 l.l.l.",
"5.+.,.%.%.%.%.%.%.%.,.=.*.5.;.>.@.5 @ l.l.",
"%.+.+.%.%.%.+.+.+.+.%.%.%.=.;.:.@.5 @ l.l.",
"%.l.+.+.+.+.+.+.7.+.+.%.%.%.;.:.@.5 @ l.l.",
"l.l.+.+.+.+.7.q.q.u.%.+.+.%.%.:.@.5 @ l.l.",
"l.l.+.+.7.7.q.u.u.i.%.7.7.7.7.7.@.5 @ l.l.",
"l.l.+.+.7.q.q.u.i.i.u.u.u.q.q.q.#.5 @ l.l.",
"l.l.+.+.q.q.y.,.,.,.i.,.,.,.i.q.#.O.@ l.l.",
"l.l.+.6.u.p.s.d.f.j.i.s.d.k.h.u.q.O.  l.l.",
"l.l.+.6.u.p.g.e.  k.u.g.  e.j.u.q.O.. l.l.",
"l.l.+.+.u.p.p.w.  k.q.k.  w.p.u.q.O o l.l.",
"l.l.+.=.u.p.p.p.p.3.u.3.p.p.p.u.q.S # l.l.",
"l.l.l.l.=.p.p.p.p.5.3.5.p.p.u.q.S l.l.l.l.",
"l.l.l.l.=.5.p.p.5.,.=.=.=.u.S q.S l.l.l.l.",
"l.l.l.l.S S 5.5.=.@ @ @ @.5 S S S l.l.l.l.",
"l.l.E R B   1 4 =.5.5.@.5 4 1   V C C l.l.",
"l.Y E E B 6 F = M =.@.5 x ; x 6 V C V C l.",
"m 0 Y R 0 v F M > M 5 c : n x x 6 V V 6 ; ",
"x T 6 6 T I G M M > n : n n x x x 6 6 r $ ",
"x T J T j T I M M M : n n n x x + t b - % ",
"x T J P L w T M M M : n z n l 7 + f b - % ",
"N T J L 6 L T M M M : n z n l h + f b - , ",
"g K k e + x T M M M : n z z l x l.t.0.1.<.",
"f H k e + p T M M M : n n n h q l.t.a.9.$.",
"f D u < + 9 s M M M : n n p q i l.9.r.8.2.",
"y & * $.+ 9 L a M M : n p n h i l.2.4.4.l.",
"t.0.1.<.+ 9 L a M M : n p n h 8 l.l.l.l.l.",
"t.a.9.$.l.i 8 d U x : x p p ; 2 l.l.l.l.l.",
"9.r.8.2.l.) ( 9 i r ; i i $ ~ ! l.l.l.l.l.",
"2.4.4.l.l.|  .{ ] ] / ' ] ^ _ W l.l.l.l.l.",
"l.l.l.l.l.' {  .' ' l.' ' ` ^ ! l.l.l.l.l.",
"l.l.l.l.l.[ {  .' ' l.' ' ` ^ ! l.l.l.l.l.",
"l.l.l.l.l.'  .' _ _ l.] ] ' _ W l.l.l.l.l.",
"l.l.l.l.l.'  .' _ _ l.' ' [ ^ ! l.l.l.l.l.",
"l.l.l.l.l.} { ] ^ ^ l.[ [ ' ` W l.l.l.l.l.",
"l.l.l.l.l.' X.' _ _ l.{ { ] ^ Q l.l.l.l.l.",
"l.l.l.l.l.o.3 X   l.l. . .' _ W l.l.l.l.l.",
"l.l.l.l.3 o.3 X   l.l.{ { ] ^ Q l.l.l.l.l.",
"l.l.l.l.  3 X X   l.l.....' ` W l.l.l.l.l.",
"l.l.l.l.l.l.l.l.l.l.l.l.  o.X   l.l.l.l.l.",
"l.l.l.l.l.l.l.l.l.l.l.l.  X X     l.l.l.l.",
"l.l.l.l.l.l.l.l.l.l.l.l.  X       l.l.l.l.",
"l.l.l.l.l.l.l.l.l.l.l.l.l.X       l.l.l.l.",
"l.l.l.l.l.l.l.l.l.l.l.l.l.l.      l.l.l.l."
};
