/* XPM */
static char *_666697323053[] = {
/* columns rows colors chars-per-pixel */
"24 49 123 2 ",
"   c black",
".  c #0B0B0B",
"X  c #0D0B09",
"o  c #100A05",
"O  c #191000",
"+  c #1C1300",
"@  c #14110B",
"#  c #1A120A",
"$  c #1A130A",
"%  c #1D140B",
"&  c #1F160B",
"*  c #1D1814",
"=  c #11151C",
"-  c #1D1D1D",
";  c #201600",
":  c #2A1D00",
">  c #20160B",
",  c #23170B",
"<  c #25160C",
"1  c #24180B",
"2  c #26190B",
"3  c #22180C",
"4  c #23190E",
"5  c #24190C",
"6  c #25190D",
"7  c #27190C",
"8  c #271A0C",
"9  c #28180D",
"0  c #29190D",
"q  c #291A0D",
"w  c #291C0F",
"e  c #271D10",
"r  c #2A1D10",
"t  c #2B1D10",
"y  c #2B1F11",
"u  c #2C1D11",
"i  c #2C1E10",
"p  c #2D1E10",
"a  c #2D1F10",
"s  c #2F1F10",
"d  c #2C1F12",
"f  c #311C11",
"g  c #321C11",
"h  c #321C12",
"j  c #331C12",
"k  c #351D12",
"l  c #361D12",
"z  c #381E12",
"x  c #3B1F13",
"c  c #2F2100",
"v  c #352500",
"b  c #2C2012",
"n  c #2D2213",
"m  c #2F2314",
"M  c #302211",
"N  c #302312",
"B  c #302313",
"V  c #302416",
"C  c #382311",
"Z  c #382013",
"A  c #392013",
"S  c #382613",
"D  c #3E2413",
"F  c #3F2314",
"G  c #372218",
"H  c #322618",
"J  c #39251C",
"K  c #3B251C",
"L  c #0E1623",
"P  c #0C1624",
"I  c #0E1826",
"U  c #0F1927",
"Y  c #0E1B2A",
"T  c #0E1B2B",
"R  c #111E2E",
"E  c #121F2F",
"W  c #141E2D",
"Q  c #101D30",
"!  c #132033",
"~  c #142134",
"^  c #142235",
"/  c #172538",
"(  c #2D2D2D",
")  c #3F362F",
"_  c #393939",
"`  c gray23",
"'  c #443000",
"]  c #463100",
"[  c #4F3700",
"{  c #593E00",
"}  c #553E0A",
"|  c #443C36",
" . c #443C37",
".. c #5F450A",
"X. c #644600",
"o. c #6B4B00",
"O. c #6A4D0A",
"+. c #6B4E0A",
"@. c #704F00",
"#. c #714F00",
"$. c #735000",
"%. c #785400",
"&. c #7B5600",
"*. c #73540A",
"=. c #75550A",
"-. c #79570A",
";. c #7C590A",
":. c #7A5B13",
">. c #53453C",
",. c #544B44",
"<. c #5B4D44",
"1. c #61564E",
"2. c #805C0A",
"3. c #86610A",
"4. c #8A640A",
"5. c #826F62",
"6. c #8F7969",
"7. c #988273",
"8. c #A48B79",
"9. c #AE9584",
"0. c #BC9F8B",
"q. c #C7AB98",
"w. c None",
/* pixels */
"w.w.w.w.w.w.w.w.w.w.w.w.w.w.' &.4.=.X.{ { w.w.w.",
"w.w.w.w.w.w.w.w.v @.@.&.&.&.4.4.2.X.{ { v w.w.w.",
"w.w.w.w.w.w.w.v { &.&.4.4.3.=.=.X.X.{ v w.w.w.w.",
"w.w.w.w.w.w.{ { o.&.4.3.=.=.=.X.X.X.{ c w.w.w.w.",
"w.w.w.w.w.: { { &.4.3.=.*.@.@.X.X.X.[ c w.w.w.w.",
"w.w.w.w.: : { %.4.:.=.*.@.@.@.X.X.X.c c w.w.w.w.",
"w.w.w.w.O : { &.4.=.*.@.@.@.@.X.X.{ c c + w.w.w.",
"w.w.w.w.O : { %.4.:.*.@.@.@.X.X.{ [ c c + w.w.w.",
"w.w.w.w.O : { %.4.=.@.@.@.@.X.X.{ [ c c + w.w.w.",
"w.w.w.w.O : { %.4.:.=.@.@.X.X.{ { [ c c + w.w.w.",
"w.w.w.w.O : { { &.;.=.@.@.X.X.{ [ [ c c + w.w.w.",
"w.w.w.w.O : ] { { ;.:.=.O.X.o.{ [ [ c c + w.w.w.",
"w.w.w.w.O : : [ [ $.;.-.-.#.o.[ [ [ c + + w.w.w.",
"w.w.w.w.O : : c [ [ [ +...} } [ [ c : O O w.w.w.",
"w.w.w.w.O : : c c [ [ [ [ [ [ [ c : : O O w.w.w.",
"w.w.w.w.+ O : c c c c c c [ [ c c : : O + w.w.w.",
"w.w.w.w.+ + O c c c c c c c c : : : : + + w.w.w.",
"w.w.w.w.w.+ + O : : : : : : : : : O + + _ w.w.w.",
"w.w.w.w.w.  ; + + O : : : : : : + + + + w.w.w.w.",
"w.w.w.w.w.  g + + + + + + c + + + + j l l w.w.w.",
"w.w.w.K J g g   * ; ; ; ; ; ; ; *   j l j l w.w.",
"w.w.G K K g < > > a s a r r r r r > > j j > w.w.",
"w.i < G J < H y b > p u t t t 6 > r r > > 3 % w.",
"w.r H > > H H V n > > h h h > > r r r > > 3 @ w.",
"w.r H m H e e H V q x 0 j 9 h > r r o $ # $ X w.",
"w.r H m N M M 1 H 7 k z C j h > r , o <.<.) | w.",
"w.d H m M > > M H 2 x j j j h > r w w.1.5.| w.w.",
"w.d H N r o o r H 2 F z j j h > r r w. . .w.w.w.",
"w.d H N r o o r H 2 F A j j h > w w w.w.w.w.w.w.",
"w.d H N r o o r H 2 F A j j h > w 5 w.w.w.w.w.w.",
"w.d H N r o o r M 2 F A j j h > w 5 w.w.w.w.w.w.",
"w.d H N r o o M M 2 D Z k h f > w 5 w.w.w.w.w.w.",
"w.d H B r o w.5 M 8 , , , , , , w @ w.w.w.w.w.w.",
"w.0.8.6.>.w.w.L 5 S S r r r r r % = w.w.w.w.w.w.",
"w.0.q.7. .w.w.W L 4 & 3 % 5 5 @ Y U w.w.w.w.w.w.",
"w.7.9.5.,.w.w.` - .   w.w.! ! T R P w.w.w.w.w.w.",
"w.,.1.1.w.w.  ` - .   w.w.Q Q E T U w.w.w.w.w.w.",
"w.w.w.w.w.w.  - . .   w.w.! ! Q R P w.w.w.w.w.w.",
"w.w.w.w.w.w.w.w.w.w.w.w.w.Q Q ~ T U w.w.w.w.w.w.",
"w.w.w.w.w.w.w.w.w.w.w.w.w.~ ~ Q E P w.w.w.w.w.w.",
"w.w.w.w.w.w.w.w.w.w.w.w.w.^ ^ ! T I w.w.w.w.w.w.",
"w.w.w.w.w.w.w.w.w.w.w.w.w./ / Q R P w.w.w.w.w.w.",
"w.w.w.w.w.w.w.w.w.w.w.w.w.w.  ` .   w.w.w.w.w.w.",
"w.w.w.w.w.w.w.w.w.w.w.w.w.w.( . .   w.w.w.w.w.w.",
"w.w.w.w.w.w.w.w.w.w.w.w.w.w..     .   w.w.w.w.w.",
"w.w.w.w.w.w.w.w.w.w.w.w.w.w..         w.w.w.w.w.",
"w.w.w.w.w.w.w.w.w.w.w.w.w.w..       . w.w.w.w.w.",
"w.w.w.w.w.w.w.w.w.w.w.w.w.w.w.        w.w.w.w.w.",
"w.w.w.w.w.w.w.w.w.w.w.w.w.w.w.w.      w.w.w.w.w."
};
