/* XPM */
static char *_667567490823[] = {
/* columns rows colors chars-per-pixel */
"25 48 127 2 ",
"   c black",
".  c #0B0B0B",
"X  c #191000",
"o  c #1C1300",
"O  c #1C1301",
"+  c #17120B",
"@  c #19120A",
"#  c #1C130A",
"$  c #1D130A",
"%  c #1E140A",
"&  c #1E140B",
"*  c #1F160A",
"=  c #19130C",
"-  c #1C1917",
";  c #201600",
":  c #2A1D00",
">  c #20170B",
",  c #23170B",
"<  c #23170D",
"1  c #25160C",
"2  c #26190B",
"3  c #22180C",
"4  c #25180D",
"5  c #27190C",
"6  c #271A0C",
"7  c #26190F",
"8  c #261A0F",
"9  c #29190D",
"0  c #291A0D",
"q  c #2A190E",
"w  c #331F0F",
"e  c #271D10",
"r  c #2A1D10",
"t  c #2A1F12",
"y  c #2F1F10",
"u  c #231D19",
"i  c #321C11",
"p  c #321C12",
"a  c #331C12",
"s  c #351D12",
"d  c #381E12",
"f  c #3B1F13",
"g  c #2F2100",
"h  c #352500",
"j  c #24201C",
"k  c #382311",
"l  c #382013",
"z  c #392013",
"x  c #3E2413",
"c  c #3F2314",
"v  c #372218",
"b  c #39251C",
"n  c #3B251C",
"m  c #0C1521",
"M  c #0C1624",
"N  c #0E1826",
"B  c #0F1927",
"V  c #0E1B2B",
"C  c #111E2E",
"Z  c #121F2F",
"A  c #101D30",
"S  c #132033",
"D  c #142134",
"F  c #142235",
"G  c #172538",
"H  c #182639",
"J  c #292421",
"K  c gray23",
"L  c #453000",
"P  c #463100",
"I  c #483200",
"U  c #4F3700",
"Y  c #593E00",
"T  c #604400",
"R  c #604401",
"E  c #634500",
"W  c #604402",
"Q  c #644600",
"!  c #624707",
"~  c #704F00",
"^  c #745307",
"/  c #7A5704",
"(  c #75550A",
")  c #7C5908",
"_  c #7A5B13",
"`  c #594A3E",
"'  c #674B25",
"]  c #232F41",
"[  c #263243",
"{  c #273344",
"}  c #273445",
"|  c #2A3648",
" . c #2B3749",
".. c #845F08",
"X. c #85600A",
"o. c #886209",
"O. c #886309",
"+. c #89630A",
"@. c #8A640A",
"#. c #81601A",
"$. c #82601A",
"%. c #9F754B",
"&. c #9D7753",
"*. c #826F62",
"=. c #B38355",
"-. c #BA8A5D",
";. c #BB8A5D",
":. c #988273",
">. c #BD8F65",
",. c #A48B79",
"<. c #C39367",
"1. c #C39C78",
"2. c #C6A17F",
"3. c #003E82",
"4. c #0054AF",
"5. c #AE9584",
"6. c #BC9F8B",
"7. c #CDA887",
"8. c #CDA988",
"9. c #CEA988",
"0. c #C7AB98",
"q. c #C5E0E5",
"w. c #E4EFF1",
"e. c #E5F0F2",
"r. c gray98",
"t. c gray99",
"y. c None",
/* pixels */
"y.y.y.y.y.y.y.y.y.y.y.y.y.y.y.y.y.y.y.y.y.y.y.y.y.",
"y.y.y.y.y.Y Y Y Y Q Q Q Q Q Q Y Y Y h y.y.y.y.y.y.",
"y.y.~ _ @.@.@.@.@._ ~ ~ ~ ~ ~ ~ Y Y Y h y.y.y.y.y.",
"y.~ ~ _ @.~ _ _ _ _ @.@.@.@.@._ ~ Y Y Y h y.y.y.y.",
"y.~ U U ~ ~ ~ ~ ~ ~ _ ~ _ _ @.@._ ~ Y Y Y : y.y.y.",
"y.U U g U U ~ ) ..) ^ ~ ~ ~ ~ _ @._ ~ Y Y : X y.y.",
"y.y.y.y.g g / X.) ) ~ ~ _ _ ~ ~ _ @.~ Y Y : X y.y.",
"y.y.y.y.y.y...^ ~ ~ ~ ~ ~ ~ @._ _ @._ ~ Y : X y.y.",
"y.y.y.y.y.y.U U ~ ~ ~ ~ ~ ~ _ @.~ _ @._ Y : X y.y.",
"y.y.y.y.y.y.g g U U U ~ ~ ~ ~ _ @._ @._ Y : X y.y.",
"y.y.y.y.y.y.&.g g g U U U ~ ~ ~ @.~ _ ~ Y : X y.y.",
"y.y.y.y.y.y.<.&.&.' g U U U U ( _ _ Y Y P : X y.y.",
"y.y.y.y.y.y.-.( <.&.&.g g U U U U _ U U : : X y.y.",
"y.y.y.y.y.y.-.7.( ( ( &.&.&.&.U U U U g : : X y.y.",
"y.y.y.y.y.y.-.8.r.w.q.9.<.>.&.U U U g g : : X y.y.",
"y.y.y.y.y.y.-.8.  4.e.9.>.9.&.%.U g g g : X o y.y.",
"y.y.y.y.y.y.1.8.  3.t.9.>.9.&.I I g g g X o o y.y.",
"y.y.y.y.y.;.+.8.8.8.9.9.9.>.=.L : : : X o o y.y.y.",
"y.y.y.y.y.y.@.O.O.E 2.9.9.9.! T : X o o ;   y.y.y.",
"y.y.y.y.y.y.~ w o.E E 8.#.R * O o o o o   y.y.y.y.",
"y.y.y.y.y.y.Y @.@.Q Q $.W i b n > > p p q k y.y.y.",
"y.y.y.y.y.y.Y @.Q Q y + > i n n v > p p q k y.y.y.",
"y.y.y.y.y.y.: Y y.& y + > 1 b v 1 > a 9 f 0 y.y.y.",
"y.y.y.y.y.y.y.y.y.& y + 3 r r > > > 9 d s 5 y.y.y.",
"y.y.y.y.y.y.y.y.y.& y + @ e e > y 9 a a f 2 y.y.y.",
"y.y.y.y.y.y.y.y.& y 4 + # e e > y 9 a d c 2 y.y.y.",
"y.y.y.y.y.y.y.y.& y 4 + % t t > y 9 a z c 2 y.y.y.",
"y.y.y.y.y.y.y.y.& 4 7 + $ t t > y 9 a z c 2 y.y.y.",
"y.y.y.y.y.y.y.y.& 4 < + $ t t > y 9 a z c 2 y.y.y.",
"y.y.y.y.y.y.y.y.& 7 + $ t 8 > y y 9 s l x 2 y.y.y.",
"y.y.y.y.y.y.y.y.& < = $ t 8 > y y 9 s l x 2 y.y.y.",
"y.y.y.y.y.y.y.y.& u ` ,.6.6.> y y 9 s l , 6 y.y.y.",
"y.y.y.y.y.y.y.y.y.- :.0.6.6.y y y 9 , , y.y.y.y.y.",
"y.y.y.y.y.y.y.y.y.j *.5.:.:.y y y 9 y.y.y.y.y.y.y.",
"y.y.y.y.y.y.y.y.y.y.  J J j m [ S 9 y.y.y.y.y.y.y.",
"y.y.y.y.y.y.y.y.y.y.y.B V Z A ] A y.y.y.y.y.y.y.y.",
"y.y.y.y.y.y.y.y.y.y.y.B V Z A ] A y.y.y.y.y.y.y.y.",
"y.y.y.y.y.y.y.y.y.y.y.M C A S [ S y.y.y.y.y.y.y.y.",
"y.y.y.y.y.y.y.y.y.y.y.B V D A ] A y.y.y.y.y.y.y.y.",
"y.y.y.y.y.y.y.y.y.y.y.M Z A D { D y.y.y.y.y.y.y.y.",
"y.y.y.y.y.y.y.y.y.y.y.N V S F } F y.y.y.y.y.y.y.y.",
"y.y.y.y.y.y.y.y.y.y.y.M C A G | G y.y.y.y.y.y.y.y.",
"y.y.y.y.y.y.y.y.y.y.y.N V S F } F y.y.y.y.y.y.y.y.",
"y.y.y.y.y.y.y.y.y.y.y.M Z A H  .  y.y.y.y.y.y.y.y.",
"y.y.y.y.y.y.y.y.y.y.y.  . K       y.y.y.y.y.y.y.y.",
"y.y.y.y.y.y.y.y.y.y.    . .       y.y.y.y.y.y.y.y.",
"y.y.y.y.y.y.y.y.y.        .     y.y.y.y.y.y.y.y.y.",
"y.y.y.y.y.y.y.y.y.              y.y.y.y.y.y.y.y.y."
};
