/* XPM */
static char *_667479498769[] = {
/* columns rows colors chars-per-pixel */
"24 49 122 2 ",
"   c black",
".  c #0B0B0B",
"X  c #191000",
"o  c #1C1300",
"O  c #1C1301",
"+  c #17120B",
"@  c #19120A",
"#  c #1C130A",
"$  c #1D130A",
"%  c #1E140A",
"&  c #1E140B",
"*  c #1F160A",
"=  c #19130C",
"-  c #1C1917",
";  c #201600",
":  c #2A1D00",
">  c #20170B",
",  c #23170B",
"<  c #23170D",
"1  c #25160C",
"2  c #26190B",
"3  c #22180C",
"4  c #25180D",
"5  c #27190C",
"6  c #271A0C",
"7  c #26190F",
"8  c #261A0F",
"9  c #29190D",
"0  c #291A0D",
"q  c #2A190E",
"w  c #331F0F",
"e  c #271D10",
"r  c #2A1D10",
"t  c #2A1F12",
"y  c #2F1F10",
"u  c #231D19",
"i  c #321C11",
"p  c #321C12",
"a  c #331C12",
"s  c #351D12",
"d  c #381E12",
"f  c #3B1F13",
"g  c #2F2100",
"h  c #352500",
"j  c #24201C",
"k  c #382311",
"l  c #382013",
"z  c #392013",
"x  c #3E2413",
"c  c #3F2314",
"v  c #372218",
"b  c #39251C",
"n  c #3B251C",
"m  c #0C1521",
"M  c #0C1624",
"N  c #0E1826",
"B  c #0F1927",
"V  c #0E1B2B",
"C  c #111E2E",
"Z  c #121F2F",
"A  c #101D30",
"S  c #132033",
"D  c #142134",
"F  c #142235",
"G  c #172538",
"H  c #182639",
"J  c #292421",
"K  c gray23",
"L  c #453000",
"P  c #463100",
"I  c #483200",
"U  c #4F3700",
"Y  c #593E00",
"T  c #604400",
"R  c #604401",
"E  c #634500",
"W  c #604402",
"Q  c #644600",
"!  c #624707",
"~  c #704F00",
"^  c #75550A",
"/  c #7A5B13",
"(  c #594A3E",
")  c #674B25",
"_  c #232F41",
"`  c #263243",
"'  c #273344",
"]  c #273445",
"[  c #2A3648",
"{  c #2B3749",
"}  c #886209",
"|  c #886309",
" . c #89630A",
".. c #8A640A",
"X. c #81601A",
"o. c #82601A",
"O. c #9F754B",
"+. c #9D7753",
"@. c #826F62",
"#. c #B38355",
"$. c #BA8A5D",
"%. c #BB8A5D",
"&. c #988273",
"*. c #BD8F65",
"=. c #A48B79",
"-. c #C39367",
";. c #C39C78",
":. c #C6A17F",
">. c #003E82",
",. c #0054AF",
"<. c #AE9584",
"1. c #BC9F8B",
"2. c #CDA887",
"3. c #CDA988",
"4. c #CEA988",
"5. c #C7AB98",
"6. c #C5E0E5",
"7. c #E4EFF1",
"8. c #E5F0F2",
"9. c gray98",
"0. c gray99",
"q. c None",
/* pixels */
"q.q.q.q.q.q.q.q.q.q.q.q.q.q.q.q.q.q.q.q.q.q.q.q.",
"q.q.q.q.q.h Y Y Y Q Q Q Q Q Q Y Y q.q.q.q.q.q.q.",
"q.q.q.q.h Y Y Y ~ ~ ~ ~ ~ ~ Q Y Y Y q.q.q.q.q.q.",
"q.q.q.h Y Y Y ~ / ........../ ~ Y Y q.q.q.q.q.q.",
"q.q.: Y Y Y ~ / ..../ / ~ / / ......Y q.q.q.q.q.",
"q.X : Y Y ~ / ../ ~ ~ ~ ~ ~ / / / / ..../ ~ q.q.",
"q.X : Y Y ~ ../ ~ ~ / / ~ ~ ~ ~ ~ ~ ~ ../ ~ ~ q.",
"q.X : Y ~ / ../ / ..~ ~ ~ ~ ~ ~ ~ ~ U U U U ~ q.",
"q.X : Y / ../ ~ ../ ~ ~ ~ ~ ~ ~ U U g g g U U q.",
"q.X : Y / ../ ../ ~ ~ ~ ~ U U U g g q.q.q.q.q.q.",
"q.X : Y ~ / ~ ..~ ~ ~ U U U g g g +.q.q.q.q.q.q.",
"q.X : P Y Y / / ^ U U U U g ) +.+.-.q.q.q.q.q.q.",
"q.X : : U U / U U U U g g +.+.-.^ $.q.q.q.q.q.q.",
"q.X : : g U U U U +.+.+.+.^ ^ ^ 2.$.q.q.q.q.q.q.",
"q.X : : g g U U U +.*.-.4.6.7.9.3.$.q.q.q.q.q.q.",
"q.o X : g g g U O.+.4.*.4.8.,.  3.$.q.q.q.q.q.q.",
"q.o o X g g g I I +.4.*.4.0.>.  3.;.q.q.q.q.q.q.",
"q.q.o o X : : : L #.*.4.4.4.3.3.3. .%.q.q.q.q.q.",
"q.q.  ; o o X : T ! 4.4.4.:.E | | ..q.q.q.q.q.q.",
"q.q.q.  o o o o O * R X.3.E E } w ~ q.q.q.q.q.q.",
"q.q.k q p p > > n b i W o.Q Q ....Y q.q.q.q.q.q.",
"q.q.k q p p > v n n i > + y Q Q ..Y q.q.q.q.q.q.",
"q.q.0 f 9 a > 1 v b 1 > + y & q.Y : q.q.q.q.q.q.",
"q.q.5 s d 9 > > > r r 3 + y & q.q.q.q.q.q.q.q.q.",
"q.q.2 f a a 9 y > e e @ + y & q.q.q.q.q.q.q.q.q.",
"q.q.2 c d a 9 y > e e # + 4 y & q.q.q.q.q.q.q.q.",
"q.q.2 c z a 9 y > t t % + 4 y & q.q.q.q.q.q.q.q.",
"q.q.2 c z a 9 y > t t $ + 7 4 & q.q.q.q.q.q.q.q.",
"q.q.2 c z a 9 y > t t $ + < 4 & q.q.q.q.q.q.q.q.",
"q.q.2 x l s 9 y y > 8 t $ + 7 & q.q.q.q.q.q.q.q.",
"q.q.2 x l s 9 y y > 8 t $ = < & q.q.q.q.q.q.q.q.",
"q.q.6 , l s 9 y y > 1.1.=.( u & q.q.q.q.q.q.q.q.",
"q.q.q.q., , 9 y y y 1.1.5.&.- q.q.q.q.q.q.q.q.q.",
"q.q.q.q.q.q.9 y y y &.&.<.@.j q.q.q.q.q.q.q.q.q.",
"q.q.q.q.q.q.9 S ` m j J J   q.q.q.q.q.q.q.q.q.q.",
"q.q.q.q.q.q.q.A _ A Z V B q.q.q.q.q.q.q.q.q.q.q.",
"q.q.q.q.q.q.q.A _ A Z V B q.q.q.q.q.q.q.q.q.q.q.",
"q.q.q.q.q.q.q.S ` S A C M q.q.q.q.q.q.q.q.q.q.q.",
"q.q.q.q.q.q.q.A _ A D V B q.q.q.q.q.q.q.q.q.q.q.",
"q.q.q.q.q.q.q.D ' D A Z M q.q.q.q.q.q.q.q.q.q.q.",
"q.q.q.q.q.q.q.F ] F S V N q.q.q.q.q.q.q.q.q.q.q.",
"q.q.q.q.q.q.q.G [ G A C M q.q.q.q.q.q.q.q.q.q.q.",
"q.q.q.q.q.q.q.F ] F S V N q.q.q.q.q.q.q.q.q.q.q.",
"q.q.q.q.q.q.q.  { H A Z M q.q.q.q.q.q.q.q.q.q.q.",
"q.q.q.q.q.q.q.      K .   q.q.q.q.q.q.q.q.q.q.q.",
"q.q.q.q.q.q.q.      . .     q.q.q.q.q.q.q.q.q.q.",
"q.q.q.q.q.q.q.q.    .         q.q.q.q.q.q.q.q.q.",
"q.q.q.q.q.q.q.q.              q.q.q.q.q.q.q.q.q.",
"q.q.q.q.q.q.q.q.q.q.q.q.q.q.q.q.q.q.q.q.q.q.q.q."
};
