/* XPM */
static char *_667570523306[] = {
/* columns rows colors chars-per-pixel */
"42 50 178 2 ",
"   c #010100",
".  c #0C0504",
"X  c #180B07",
"o  c #2C140E",
"O  c #271A0A",
"+  c #31160F",
"@  c #2D210D",
"#  c #31230D",
"$  c #352819",
"%  c #372916",
"&  c #2D2417",
"*  c #412C18",
"=  c #45311C",
"-  c #4B321C",
";  c #553519",
":  c #5B3A1B",
">  c #613E1E",
",  c #473323",
"<  c #543B24",
"1  c #573D2B",
"2  c #423E34",
"3  c #56481F",
"4  c #5D4915",
"5  c #66401F",
"6  c #614D1E",
"7  c #63501F",
"8  c #5C422C",
"9  c #4B4133",
"0  c #5D543C",
"q  c #5C4A32",
"w  c #614125",
"e  c #6D4520",
"r  c #64482D",
"t  c #6B4B2B",
"y  c #66462D",
"u  c #744A24",
"i  c #794C24",
"p  c #754E2B",
"a  c #794F2A",
"s  c #7E5026",
"d  c #75512F",
"f  c #7F522A",
"g  c #795F27",
"h  c #644531",
"j  c #6B4B36",
"k  c #734E3A",
"l  c #724F37",
"z  c #655A3C",
"x  c #615739",
"c  c #795430",
"v  c #79553A",
"b  c #7E5931",
"n  c #6E5723",
"m  c #7C602B",
"M  c #6F623A",
"N  c #716339",
"B  c #7A6836",
"V  c #5D5642",
"C  c #7C5541",
"Z  c #7C6D42",
"A  c #756A49",
"S  c #766A46",
"D  c #9C7A1D",
"F  c #A27F15",
"G  c #815227",
"H  c #825328",
"J  c #89572A",
"K  c #8C592C",
"L  c #955F2F",
"P  c #96522D",
"I  c #825730",
"U  c #845A39",
"Y  c #955739",
"T  c #8B6C2D",
"R  c #97602E",
"E  c #99612F",
"W  c #9F7321",
"Q  c #9F7D24",
"!  c #9E7C2C",
"~  c #967525",
"^  c #816C30",
"/  c #8D623D",
"(  c #976130",
")  c #9D6736",
"_  c #95693A",
"`  c #8E793A",
"'  c #87743D",
"]  c #937D38",
"[  c #A17522",
"{  c #A47C24",
"}  c #A47B2B",
"|  c #A16B3A",
" . c #A1723F",
".. c #855A43",
"X. c #8B5D45",
"o. c #935D43",
"O. c #985B41",
"+. c #8E6848",
"@. c #8C6747",
"#. c #996A41",
"$. c #9A6F4A",
"%. c #827241",
"&. c #8E7E4F",
"*. c #86794D",
"=. c #9D7149",
"-. c #987250",
";. c #897C51",
":. c #A06F44",
">. c #AB7443",
",. c #A97547",
"<. c #B27B4A",
"1. c #A47B57",
"2. c #B17F67",
"3. c #AE8817",
"4. c #A7821F",
"5. c #A58122",
"6. c #A78132",
"7. c #A98537",
"8. c #AC8B3E",
"9. c #AC903F",
"0. c #CF8C23",
"q. c #9E8747",
"w. c #95824B",
"e. c #9B8648",
"r. c #9F8E5A",
"t. c #958653",
"y. c #A38B44",
"u. c #AB8E41",
"i. c #B09348",
"p. c #A7895B",
"a. c #B98251",
"s. c #B6865C",
"d. c #BE895C",
"f. c #A69256",
"g. c #A2915B",
"h. c #AD9752",
"j. c #B49B52",
"k. c #A89047",
"l. c #B8A35B",
"z. c #A68160",
"x. c #B78C66",
"c. c #AC9A60",
"v. c #BA906C",
"b. c #B9A663",
"n. c #BDAD67",
"m. c #BBA96E",
"M. c #B1A067",
"N. c #BFB16C",
"B. c #BBAA72",
"V. c #C28E5F",
"C. c #D3AD55",
"Z. c #CA9261",
"A. c #C59469",
"S. c #CB996D",
"D. c #C9976C",
"F. c #D09C6F",
"G. c #C39A76",
"H. c #D39F71",
"J. c #C0AC6A",
"K. c #DAA272",
"L. c #D9A87E",
"P. c #D7A273",
"I. c #C1B571",
"U. c #C6BD7B",
"Y. c #E4AB7A",
"T. c #D6C276",
"R. c #D6AA84",
"E. c #E0AE82",
"W. c #CAC584",
"Q. c #CCC989",
"!. c #D7CE89",
"~. c #CFCF91",
"^. c #D1D395",
"/. c #D3D79A",
"(. c #D9DB9C",
"). c #D6DDA1",
"_. c #D8E1A6",
"`. c None",
/* pixels */
"`.Y d.d.P 0.0.0.P d.d.d.d.d.d.d.d.d.d.d.d.d.d.d.d.d.V.d.d.d.d.d.d.0.0.0.0.s.V.V.Y `.",
"2.R.R.R.O.C.C.C.Y R.R.R.R.R.R.R.R.R.R.R.R.R.R.R.R.R.R.R.R.R.R.R.R.C.C.C.C.G.R.R.R.2.",
"K.K.K.K.o.T.T.T.Y P.K.K.K.K.K.K.K.K.K.K.K.K.K.K.K.K.K.K.K.K.H.H.K.T.T.T.T.x.K.K.H.H.",
"Y.R.E.E.o.!.!.!.o.E.E.E.E.E.E.E.Y.E.E.R.E.E.E.E.R.E.E.E.E.E.E.Y.E.!.!.!.!.v.E.E.E.E.",
"H.F.S.S.X.).).(.X.D.S.S.S.S.S.S.S.S.S.S.S.S.S.S.D.D.S.S.S.D.D.S.S.(.(.(.(.1.S.S.F.S.",
"Y.Y.Y.Y.X.)._.).@.Y.Y.Y.Y.Y.Y.Y.Y.Y.Y.Y.Y.Y.P.S.A.A.A.V.A.A.A.A.A.)._._._.s.Y.Y.Y.Y.",
"Y.Y.Y.Y...).).)...H.S.P.P.F.F.F.H.H.H.F.P.P.K.K.Y.Y.Y.Y.Y.Y.Y.Y.Y.).).).).p.Y.Y.Y.Y.",
"K.H.K.H.../.(.(.U K.K.K.K.K.K.K.K.K.K.K.K.K.K.K.K.H.K.K.H.K.K.H.K././././.1.K.K.Y.H.",
"+.+.$.-.k ^.^.^.v s.s.s.s.s.s.s.s.s.s.s.s.s.s.s.s.s.a.s.s.s.s.s.s.^.^.^.^.@.s.s.s.s.",
"x.G.L.R.C ~.~.~.v R.L.L.L.L.L.L.L.L.L.L.L.L.L.R.L.L.L.L.L.L.L.L.L.~.~.~.~.p.L.L.L.L.",
"Z.Z.Z.Z.l Q.Q.Q.v Z.Z.Z.Z.Z.V.d.d.d.d.d.d.d.d.d.V.V.d.V.d.V.d.V.Z.Q.Q.Q.Q.=.A.Z.Z.Z.",
"Z.Z.Z.Z.x W.W.Q.j Z.Z.Z.Z.Z.Z.Z.Z.Z.Z.Z.Z.Z.Z.Z.V.Z.V.Z.Z.V.Z.Z.v.W.W.W.W.$.Z.Z.Z.Z.",
",.:.:.$.h R.W.R.h =.=.=.=.=.=.=.$.=.=.=.=.=.=.:.=.=.=.:.=.=.=.=.-.T.U.W.T.v =.=.:.=.",
"A.D.A.A.q T.N.U.r A.A.A.A.A.A.D.A.A.A.A.A.A.A.A.A.A.D.A.A.A.A.A.v.T.N.U.N.=.A.A.A.D.",
"<.V.<.V.q N.N.U.y a.a.a.a.a.a.a.a.a.a.a.a.a.a.a.a.a.a.a.a.a.a.a.a.N.N.N.N.@.a.a.a.a.",
"<.<.<.a.8 N.N.N.8 <.<.<.:.#.#.#.#.#.#._ #.#.#.#.#.#.#.#.#.:.,.<.s.N.N.N.N.@.a.<.a.<.",
"<.<.<.<.8 N.n.n.< <.<.<.<.<.<.<.<.<.<.<.<.<.<.<.<.<.<.<.<.<.<.<.<.J.J.J.n./ <.<.<.<.",
">.>.>.>.< l.b.b.< >.>.>. .>. .>.>.>.>.>.>.>.>.>.>. .>.>. .>.>. .>.b.l.b.l.I >.>. .>.",
"8 w w w , l.l.l.= w w w e w w w w w w w w w w w w w w w w w 5 w w l.l.l.l.- 8 5 w w ",
"| | | | , j.j.j.= | | | | | | | | | | | | | | | | | | | | | | | | j.j.j.l.f | | | | ",
") ) ) ) , j.h.j.* | ) ) | E | ) ) ) ) ) ) ) ) ) ) ) ) ) | ) ) ) | i.j.j.i.i | | ) ) ",
"L E R E = i.i.i.% K a G G G G s f s s G G s f s s f s J P R ( ( L i.i.i.i.u L E R E ",
"L L L L = u.8.8.% L L L L L L L L L L L R L L L R R L L L L R L L u.u.u.i.u L L L L ",
"L L L L * 8.8.8.% L L L L L L L L K G G s s s s s s s u u u s s G 8.u.8.8.> G H K E ",
"i J L L % 7.7.7.# E L E L L L E E L L L L L L L R R R R R R R R L 7.7.7.7.i L L ( ( ",
"; ; ; : & 6.6.6.# e e e e e e e e e e e e e e u u 5 u 5 5 u e 5 u } } 7.} ; e e e e ",
"i K R E $ } } } # E E E E E E E E E L L E L P ( R R R R E E E E L } } } } i L ( ( ( ",
"J E E E $ } [ [ # E E E E E E E E P J J G J H J f f G G G H H H H } [ [ } u L ( E ( ",
": P H H & W W W + G G G H H G G H G H K L E E E E E E E E E E E E [ [ W W G E L E > ",
"[ [ [ [ F W [ [ [ [ [ [ [ [ F [ F [ [ [ [ [ [ F [ [ [ [ F [ [ F [ [ [ [ W [ [ F [ [ ",
"{ { { { { { [ [ { { { { [ { { { { { [ { { { { { { [ { { { { [ } { { { { [ [ { { { { ",
"{ { 5.{ { { { } { { { { { { { { { { { { { { { 5.{ { { { { { { { 5.{ { { { } { { { { ",
"6 5.{ Q 5.Q Q 5.Q Q Q 5.Q Q Q Q { Q Q Q Q Q Q Q Q Q Q Q Q Q Q { Q Q Q Q Q Q { 5.! 4 ",
"*.B M N N B B 5 u u i i u i + m m g m m m m m m m m m m m + i i i i w *.A Z Z B ^ B ",
"r.;.Z %.' ` ` t H H H H H H o T T T g 7 r 7 6 6 6 n T T T o H G H H t t.S %.' ' ] w.",
"b.g.w.e.e.y.8.c R R R R R R o } ! ' m.n.n.n.J.J.n.m.B ! ! o ( L ( R v h.&.w.e.q.u.u.",
"b.g.w.w.e.y.u.t G G G G f f X ! ! g.M.c.c.g.c.c.h.c.c.~ ! X L L R L d c.w.w.e.q.y.y.",
"A g.w.w.e.y.u.c L L L L R L . Q Q &.w.&.t.;.;.w.&.&.&.~ Q . ( K i p y c.&.w.e.q.y.6.",
"=.9 2 2 2 2 2 d K K J K K K   5.5.w.w.w.w.0 0 w.t.&.w.W 5.  K K K L d ;.A Z Z Z B n ",
" .R L L L L L L L L L L L L   4.4.w.w.w.Z     M w.w.e.D 4.  L L R L L L L L L L R K ",
"_ L L ( L L L L L L L L L L * 3.3.e.e.e.e.9 9 e.e.e.e.4.3.* L L L ( L L L L L L R d ",
"b u > > 5 5 5 u p a L L L L L     q.q.y.e.2 0 q.y.q.y.  O L L L L L L L L L L L R f ",
"q u G ( L R L L L L L L L L L L ( u.y.y.y.9 0 y.8.y.y.J L L L L L L ( ( L L L L R 9 ",
"B.V 2 2 2 2 2 b L L L L L L L L R 3 9.u.9.9.9.9.9.9.8 K L L L L L L H 2 2 2 2 2 V m.",
"b.z.r.g.f.f.h.d K K K K K K K K K u                 w H G H G H f f t M.r.g.f.f.k.9.",
"b.c.w.w.e.y.8.d K K K K J K J K K K K K L ( R ( R R R R L L L L L L c c.&.w.e.e.u.9.",
"b.g.w.w.e.y.u.c L L L L L L L L L L L L L L R K J f f H H H H H H H t c.&.w.e.q.u.9.",
"M.g.w.w.e.y.8.v L L L L L L L L L L L L L L L L R L R R L L L L ( ( c c.&.w.e.e.y.9.",
"A g.w.w.e.y.9.t f f f f f f f f c f H f f p p p p p p p p p p u p p r c.&.w.e.q.y.N ",
"`.A t.e.e.q.u.r d d d p p p p p p d p p d p p p p p p p p p p p p p r c.&.w.e.q.B `."
};
