/* XPM */
static char *_672669993233[] = {
/* columns rows colors chars-per-pixel */
"23 47 143 2 ",
"   c black",
".  c #040200",
"X  c #0B0B0B",
"o  c #100A00",
"O  c #160F00",
"+  c #100A05",
"@  c #191000",
"#  c #1C1300",
"$  c #14110B",
"%  c #17120B",
"&  c #19120A",
"*  c #1A120A",
"=  c #1A130A",
"-  c #1C130A",
";  c #1D130A",
":  c #1D140B",
">  c #1E140A",
",  c #1E140B",
"<  c #1E160B",
"1  c #19130C",
"2  c #1D160C",
"3  c #1D1814",
"4  c #11151C",
"5  c #1D1D1D",
"6  c #201600",
"7  c #2A1D00",
"8  c #20160B",
"9  c #20170B",
"0  c #23170B",
"q  c #23170C",
"w  c #23170D",
"e  c #25160C",
"r  c #24170D",
"t  c #24180B",
"y  c #20180D",
"u  c #22180C",
"i  c #23180C",
"p  c #22180D",
"a  c #23190F",
"s  c #24190C",
"d  c #24180D",
"f  c #25180D",
"g  c #25190D",
"h  c #25190F",
"j  c #26190F",
"k  c #261A0F",
"l  c #271C0F",
"z  c #291C0F",
"x  c #271D10",
"c  c #271D11",
"v  c #2A1C10",
"b  c #2B1C10",
"n  c #2A1D10",
"m  c #2B1D10",
"M  c #2B1F11",
"N  c #2A1F12",
"B  c #2C1D11",
"V  c #2C1E10",
"C  c #2F1F10",
"Z  c #2C1F12",
"A  c #321C11",
"S  c #331C12",
"D  c #361D12",
"F  c #2F2100",
"G  c #352500",
"H  c #382700",
"J  c #2A2013",
"K  c #2C2012",
"L  c #2D2213",
"P  c #2D2214",
"I  c #2F2314",
"U  c #2F2416",
"Y  c #302211",
"T  c #302312",
"R  c #302416",
"E  c #382613",
"W  c #372218",
"Q  c #322618",
"!  c #39251C",
"~  c #3B251C",
"^  c #0C1624",
"/  c #0E1826",
"(  c #0F1927",
")  c #0E1B2A",
"_  c #0E1B2B",
"`  c #0F1C2F",
"'  c #101C2E",
"]  c #101D2F",
"[  c #111E2E",
"{  c #121F2F",
"}  c #101D30",
"|  c #132033",
" . c #142134",
".. c #142235",
"X. c #152235",
"o. c #162335",
"O. c #172538",
"+. c #182639",
"@. c #192739",
"#. c gray23",
"$. c #422C0B",
"%. c #4F3700",
"&. c #593E00",
"*. c #4B3616",
"=. c #443C37",
"-. c #644600",
";. c #6B4B00",
":. c #6E4E00",
">. c #704F00",
",. c #715000",
"<. c #745200",
"1. c #785400",
"2. c #7B5600",
"3. c #75550A",
"4. c #53453C",
"5. c #594A3E",
"6. c #544B44",
"7. c #685543",
"8. c #61564E",
"9. c #8A640A",
"0. c #9B6737",
"q. c #9D7753",
"w. c #826F62",
"e. c #988273",
"r. c #A48B79",
"t. c #C39367",
"y. c #003E82",
"u. c #0054AF",
"i. c #AE9584",
"p. c #BC9F8B",
"a. c #CCA685",
"s. c #D7AB83",
"d. c #D3AB85",
"f. c #D0AB8A",
"g. c #C7AB98",
"h. c #C6E0E5",
"j. c #D6E4E7",
"k. c #DDE2E5",
"l. c #E7F2F4",
"z. c #EAF1F7",
"x. c #F1F5F8",
"c. c white",
"v. c None",
/* pixels */
"v.v.v.v.G &.&.&.&.&.&.&.&.&.G v.v.v.v.v.v.v.v.",
"v.v.v.G &.3.3.3.3.3.3.<.&.&.&.G v.v.v.v.v.v.v.",
"v.v.v.F 9.9.9.9.9.9.3.3.3.2.;.&.&.v.v.v.v.v.v.",
"v.v.v.3.9.3.3.3.3.9.9.9.9.<.2.&.&.7 v.v.v.v.v.",
"v.v.3.9.3.-.-.-.3.3.3.3.9.9.9.,.&.7 7 v.v.v.v.",
"v.-.9.3.-.-.-.-.-.-.-.3.>.:.9.<.2.&.7 @ v.v.v.",
"v.9.%.%.-.-.-.%.%.%.%.-.-.-.>.<.1.&.7 @ v.v.v.",
"v.-.v.%.%.%.%.%.%.q.%.%.-.-.-.<.1.&.7 @ v.v.v.",
"v.v.v.%.%.%.%.q.t.t.s.-.%.%.-.-.1.&.7 @ v.v.v.",
"v.v.v.%.%.q.q.t.s.s.d.-.q.q.q.q.q.&.7 @ v.v.v.",
"v.v.v.%.%.q.t.t.s.d.d.s.s.s.t.t.t.*.7 @ v.v.v.",
"v.v.v.%.%.t.t.a.3.3.3.d.3.3.3.d.t.*.$.@ v.v.v.",
"v.v.v.%.0.s.f.h.j.k.x.d.h.j.c.z.s.t.$.  v.v.v.",
"v.v.v.%.0.s.f.l.u.  c.s.l.  u.x.s.t.$.. v.v.v.",
"v.v.v.%.%.s.f.f.y.  c.t.c.  y.f.s.t.O o v.v.v.",
"v.v.v.%.>.s.f.f.f.f.7.s.7.f.f.f.s.t.H # v.v.v.",
"v.v.v.v.v.>.f.f.f.f.9.7.9.f.f.s.t.H v.v.v.v.v.",
"v.v.v.v.v.>.9.f.f.9.3.>.>.>.s.H t.H v.v.v.v.v.",
"v.v.v.v.v.H H 9.9.>.@ @ @ &.7 H H H v.v.v.v.v.",
"v.v.v.~ ! A   3 6 >.9.9.&.7 6 3   S D D v.v.v.",
"v.v.W ~ ~ A 8 K - C >.&.7 n : n 8 S D S D v.v.",
"v.V e W ! e M K C < C 7 m , B n n 8 S S 8 : v.",
"v.n Q 8 8 Q R L C C < B , B B n n n 8 8 u $ v.",
"v.n Q I Q x Q R C C C , B B B n n g s n u $ v.",
"v.n Q I T Y t Q C C C , B b B v 0 n s x & $ v.",
"v.Z Q I Y 8 Y Q C C C , B b B v z & 9 x - $ v.",
"v.l U c y + n Q C C C , B b b v n + i N > % v.",
"v.k P c y + d Q C C C , B B B z r + i N ; % v.",
"v.k J a 2 + w h C C C , B B d r s + i N ; % v.",
"v.p * = =.+ w Y f C C , B d B z s + k N ; % v.",
"v.w.w.w.8.+ w Y f C C , B d B z q + k N ; 1 v.",
"v.8.w.8.v.v.s q j E n , n d d : 4 v.p.r.5.4.v.",
"v.=.=.v.v.v.] ' w s u : s s $ ) ( v.p.g.e.=.v.",
"v.v.v.v.v.v.o.O...| | ` } | _ [ ^ v.e.i.w.6.v.",
"v.v.v.v.v.v.} ..O.} } v.} } { _ ( v.6.8.8.v.v.",
"v.v.v.v.v.v. ...O.} } v.} } { _ ( v.v.v.v.v.v.",
"v.v.v.v.v.v.} O.} [ [ v.| | } [ ^ v.v.v.v.v.v.",
"v.v.v.v.v.v. ... ._ _ v.} }  ._ ( v.v.v.v.v.v.",
"v.v.v.v.v.v.} O.} { { v. . .} { ^ v.v.v.v.v.v.",
"v.v.v.v.v.v.| ..| _ _ v.....| _ / v.v.v.v.v.v.",
"v.v.v.v.v.v.} O.} [ [ v.O.O.} [ ^ v.v.v.v.v.v.",
"v.v.v.v.v.v.X...| _ _ v.....| _ / v.v.v.v.v.v.",
"v.v.v.v.v.v.} @.} [ [ v.+.+.} { ^ v.v.v.v.v.v.",
"v.v.v.v.v.v.#.5 X   v.v.v.  #.X   v.v.v.v.v.v.",
"v.v.v.v.v.5 #.5 X   v.v.v.  X X     v.v.v.v.v.",
"v.v.v.v.v.  5 X X   v.v.v.  X       v.v.v.v.v.",
"v.v.v.v.v.  5 X X v.v.v.v.v.v.v.v.v.v.v.v.v.v."
};
